ply
format ascii 1.0
comment Created by Open Asset Import Library - http://assimp.sf.net (v3.1.187496374)
element vertex 88
property float x
property float y
property float z
property float nx
property float ny
property float nz
property float s
property float t
property float tx
property float ty
property float tz
property float bx
property float by
property float bz
element face 38
property list uint uint vertex_index
end_header
-2.75741 24.6859 50.9654 -0.312389 -0.949946 -0.00397067 -1.56836 2 -0.196656 0.0687584 -0.978059 0.733952 -0.238701 -0.635875
-5.17994 25.8628 -39.9936 -0.312389 -0.949946 -0.00397067 0.998047 1 -0.196656 0.0687584 -0.978059 0.733952 -0.238701 -0.635875
4.10948 33.0999 -9.13402 0.450559 -0.892436 -0.0235457 0 1 -0.131252 -0.0401307 -0.990536 0.8812 0.448805 -0.148529
14.4517 35.7844 -40.3879 0.949579 -0.312153 -0.0293286 1 1 0.0298922 0.183255 -0.982611 0.262346 0.739858 0.619504
16.8742 34.6077 50.5711 0.949579 -0.312153 -0.0293286 -1.56836 0 0.0298922 0.183255 -0.982611 0.262346 0.739858 0.619504
-12.6696 44.3193 51.4838 -0.949579 0.312153 0.0293286 -1.56836 2 0.029891 0.183252 -0.982612 -0.263138 -0.742608 -0.615867
-15.0921 45.4961 -39.4754 -0.949579 0.312153 0.0293286 0.998047 1 0.029891 0.183252 -0.982612 -0.263138 -0.742608 -0.615867
-6.63373 36.6314 -8.80219 -0.89235 -0.450989 0.0179311 0 1 -0.0793611 0.117671 -0.989876 0.443204 -0.883074 -0.154111
-5.17994 25.8628 -39.9936 -0.312389 -0.949946 -0.00397067 1 1 0.144271 -0.0433114 -0.98859 0.763961 -0.253708 0.593292
-2.75741 24.6859 50.9654 -0.312389 -0.949946 -0.00397067 -1.56836 0 0.144271 -0.0433114 -0.98859 0.763961 -0.253708 0.593292
-3.09938 47.3788 -8.75706 -0.450558 0.892437 0.0235455 0 1 -0.131252 -0.0401307 -0.990536 -0.880871 -0.448697 0.150786
-15.0921 45.4961 -39.4754 -0.949579 0.312153 0.0293286 1 1 -0.0822688 -0.157808 -0.984037 -0.229515 -0.755811 0.613248
-12.6696 44.3193 51.4838 -0.949579 0.312153 0.0293286 -1.56836 0 -0.0822688 -0.157808 -0.984037 -0.229515 -0.755811 0.613248
6.96205 54.2411 51.0894 0.312385 0.949947 0.0039691 -1.56836 2 0.144281 -0.0433153 -0.988588 -0.763955 0.253701 -0.593303
4.53952 55.4178 -39.8695 0.312385 0.949947 0.0039691 1 1 0.144281 -0.0433153 -0.988588 -0.763955 0.253701 -0.593303
16.8742 34.6077 50.5711 0.949579 -0.312153 -0.0293286 -1.56836 2 -0.0822684 -0.157807 -0.984037 0.229513 0.755804 -0.613257
14.4517 35.7844 -40.3879 0.949579 -0.312153 -0.0293286 1 1 -0.0822684 -0.157807 -0.984037 0.229513 0.755804 -0.613257
7.64384 43.8473 -9.08901 0.892349 0.45099 -0.0179318 0 1 0.0264856 -0.091984 -0.995408 -0.450061 0.88611 -0.110696
4.53952 55.4178 -39.8695 0.312385 0.949947 0.0039691 0.998047 1 -0.196652 0.0687544 -0.97806 -0.733911 0.238685 0.635928
6.96205 54.2411 51.0894 0.312385 0.949947 0.0039691 -1.56836 0 -0.196652 0.0687544 -0.97806 -0.733911 0.238685 0.635928
3.64633 38.7134 109.001 0.0266157 -0.0129542 0.999562 0.9375 0.703125 -0.997877 0.059114 0.0273368 0.0421664 -0.999012 -0.0140698
16.8742 34.6077 50.5711 0.998551 0.040394 0.0355582 0.023438 0.648438 -0.0367083 0.0280951 0.998931 0.0387039 -0.998145 0.0470014
16.3799 46.6792 50.7407 0.998551 0.040394 0.0355582 0.035156 0.851562 -0.0367083 0.0280951 0.998931 0.0387039 -0.998145 0.0470014
7.64383 43.8473 -9.08901 0.988322 0.0425313 -0.146323 -0.960938 0.851562 0.144325 0.0467845 0.988424 0.049494 -0.997793 0.0442758
6.96206 54.2411 51.0894 -0.0392041 0.99637 0.0755643 0.023438 0.996094 0.994866 0.0459819 -0.0901494 -0.987738 -0.0500791 0.147873
-5.10654 53.7423 51.4043 -0.0392041 0.99637 0.0755643 0 1 0.994866 0.0459819 -0.0901494 -0.987738 -0.0500791 0.147873
3.64633 38.7134 109.001 0.0266157 -0.0129542 0.999562 0.9375 0.703125 0.998027 0.0572289 -0.0258331 -0.997092 -0.0717682 0.0256198
4.53951 55.4178 -39.8695 -0.026616 0.0129485 -0.999562 0 1 0.450559 -0.892436 -0.0235581 -0.892351 -0.450987 0.0179191
-5.17994 25.8628 -39.9936 -0.026616 0.0129485 -0.999562 0.996094 0 0.450559 -0.892436 -0.0235581 -0.892351 -0.450987 0.0179191
-15.0921 45.4961 -39.4754 -0.0266081 0.0129459 -0.999562 0 0 0.450559 -0.892436 -0.0235522 -0.892351 -0.450986 0.0179132
14.4517 35.7844 -40.3879 -0.0266239 0.0129511 -0.999562 0.996094 1 0.45056 -0.892435 -0.023564 -0.892351 -0.450987 0.017925
-2.75741 24.6859 50.9654 0.0424837 -0.997963 0.0475875 0.996094 0.996094 -0.998808 -0.0412767 0.0260655 -0.0190537 -0.0484312 -0.998645
9.31119 25.1847 50.6504 0.0424837 -0.997963 0.0475875 0 0.996094 -0.998808 -0.0412767 0.0260655 -0.0190537 -0.0484312 -0.998645
3.64633 38.7134 109.001 0.0266157 -0.0129542 0.999562 0.503906 5.46094 -0.997877 0.059114 0.0273368 0.0421664 -0.999012 -0.0140698
4.10948 33.0999 -9.13402 0.0374158 -0.990226 -0.134358 0.261719 -3.90625 -0.998808 -0.0412768 0.0260657 -0.0335995 0.13313 -0.990529
-6.63373 36.6314 -8.80219 -0.994738 -0.0394083 -0.0945684 -0.996094 1 -0.0915496 -0.0724219 0.993164 -0.0445729 0.997592 0.0531358
-12.1752 32.2477 51.3141 -0.995271 -0.0419905 0.0875939 0 1 0.0900338 -0.0602434 0.994115 -0.0373778 0.99786 0.0536523
-12.6696 44.3193 51.4838 -0.995271 -0.0419905 0.0875939 -0.007812 0.792969 0.0900338 -0.0602434 0.994115 -0.0373778 0.99786 0.0536523
3.64633 38.7134 109.001 0.0266157 -0.0129542 0.999562 0.898438 0.847656 0.993203 -0.112998 -0.027911 -0.0304932 0.99944 0.0137646
-3.09938 47.3788 -8.75706 -0.0438312 0.993343 -0.106533 0.261719 -3.90625 0.998808 0.0412769 -0.0260656 -0.0190507 -0.107447 -0.994028
-5.10654 53.7423 51.4043 -0.0392041 0.99637 0.0755643 0 1 0.998808 0.0412769 -0.0260656 -0.0266048 0.0745549 -0.996862
6.96206 54.2411 51.0894 -0.0392041 0.99637 0.0755643 1 1 0.998808 0.0412769 -0.0260656 -0.0266048 0.0745549 -0.996862
9.31118 25.1846 50.6505 0.77959 -0.625432 0.0327755 1 0.996094 -0.626006 -0.779744 0.0107093 0.0183563 -0.029492 -0.999396
16.8742 34.6077 50.5711 0.77959 -0.625432 0.0327755 0 1 -0.626006 -0.779744 0.0107093 0.0183563 -0.029492 -0.999396
3.64633 38.7134 109.001 0.0266242 -0.0129445 0.999562 0.492188 5.46094 -0.626745 -0.779197 0.00660312 0.758155 -0.651446 -0.0286304
4.10947 33.0999 -9.13396 0.770545 -0.619704 -0.14909 0.734375 -3.90625 -0.625438 -0.780203 0.0105065 -0.119303 0.0895484 -0.988811
3.64633 38.7134 109.001 0.0266242 -0.0129445 0.999562 0.492188 5.46094 -0.77943 0.625824 0.0288653 -0.652693 -0.757585 0.00757438
-12.1752 32.2477 51.3142 -0.623094 -0.779172 0.0681448 0.996094 1 -0.77943 0.625824 0.0288624 -0.0690283 -0.0320034 -0.997101
-2.75742 24.6859 50.9654 -0.623094 -0.779172 0.0681448 0 1 -0.77943 0.625824 0.0288624 -0.0690283 -0.0320034 -0.997101
-6.63374 36.6314 -8.80212 -0.624571 -0.772616 -0.113912 0.734375 -3.90625 -0.77943 0.625824 0.0288624 0.0507451 0.105403 -0.993134
3.64633 38.7134 109.001 0.0266242 -0.0129445 0.999562 0.492188 5.80859 0.78004 -0.625063 -0.0288717 0.651546 0.758572 -0.00753076
16.3799 46.6792 50.7408 0.626377 0.777577 0.0550081 1 1 0.779457 -0.625664 -0.0314813 0.0158335 0.0578609 -0.998199
6.96205 54.241 51.0894 0.626377 0.777577 0.0550081 0 0.996094 0.779457 -0.625664 -0.0314813 0.0158335 0.0578609 -0.998199
16.3799 46.6792 50.7408 0.626377 0.777577 0.0550081 1 0.996094 0.779457 -0.625664 -0.0314813 0.0158335 0.0578609 -0.998199
7.64383 43.8473 -9.08896 0.618157 0.775731 -0.126977 0.734375 -3.90625 0.779428 -0.625826 -0.0288529 -0.103151 -0.0800878 -0.991436
-12.6696 44.3193 51.4839 -0.776309 0.62384 0.090376 0 1 0.625924 0.779856 -0.00657775 -0.0737344 0.0525203 -0.995894
-5.10654 53.7423 51.4044 -0.776309 0.62384 0.090376 0.996094 1 0.625924 0.779856 -0.00657775 -0.0737344 0.0525203 -0.995894
-3.09939 47.3788 -8.757 -0.776958 0.622824 -0.0918003 0.734375 -3.90625 0.625924 0.779856 -0.00657775 0.0660875 -0.0643231 -0.995738
3.64633 38.7134 109.001 0.0266242 -0.0129445 0.999562 0.492188 5.80859 0.625924 0.779856 -0.00657272 -0.757152 0.652612 0.0286189
14.4517 35.7844 -40.3879 0.841851 -0.2749 -0.464453 1 1 -0.500952 -0.0777778 -0.861973 0.0433558 0.892226 -0.449504
39.0634 61.3097 -69.7251 0.890764 0.447646 0.078434 1 0 0.11173 -0.0484188 -0.992558 0.00800238 0.157109 -0.987549
7.64383 43.8473 -9.08896 0.773516 0.377072 0.509402 0 1 0.50053 0.129585 -0.855966 0.405381 0.323472 -0.855004
4.53951 55.4177 -39.8695 0.269118 0.859515 -0.434522 1 1 -0.378392 -0.320527 -0.868379 0.733734 -0.475222 -0.48559
4.10947 33.0999 -9.13396 0.397473 -0.766407 0.504614 0 1 0.328043 -0.394898 -0.858163 0.136165 -0.494569 -0.858406
19.1827 0.856094 -69.9787 0.451026 -0.889533 0.0728438 0.998047 0 0.121123 -0.0198569 -0.992439 -0.0846823 -0.123899 -0.988675
14.4517 35.7844 -40.3879 0.841851 -0.2749 -0.464453 0.998047 1 -0.35488 0.366414 -0.860117 -0.493536 -0.740385 -0.456347
-5.17995 25.8627 -39.9935 -0.292453 -0.848176 -0.441665 1 1 -0.112157 0.489092 -0.864991 0.873304 -0.0487048 -0.484735
-3.09939 47.3788 -8.75701 -0.369536 0.752823 0.544702 0 1 -0.37298 0.416728 -0.828989 -0.182027 0.51619 -0.836908
-21.3671 81.1744 -67.8585 -0.4459 0.887041 0.119718 0.998047 0 -0.173752 0.0454266 -0.983741 0.0309835 0.148966 -0.988357
-15.0921 45.4961 -39.4754 -0.865182 0.286251 -0.411728 1 1 0.308342 -0.343818 -0.886969 0.469283 0.751556 -0.463613
4.53951 55.4177 -39.8695 0.269118 0.859515 -0.434522 1 1 0.06563 -0.466484 -0.882091 -0.898255 0.0612416 -0.435187
-21.3671 81.1744 -67.8585 -0.4459 0.887041 0.119718 1 0 -0.173752 0.0454266 -0.983741 0.0309835 0.148966 -0.988357
4.53951 55.4177 -39.8695 0.269118 0.859515 -0.434522 0.998047 1 -0.805139 0.44836 0.388232 -0.710329 0.481811 0.513119
39.0634 61.3097 -69.7251 0.890764 0.447646 0.078434 0.498047 2.46875 -0.45056 0.892435 0.0235642 -0.059155 -0.0569111 0.996625
14.4517 35.7844 -40.3879 0.841851 -0.2749 -0.464453 0 1 0.109455 0.929639 -0.35184 -0.0236652 -0.878535 0.477091
14.4517 35.7844 -40.3879 0.841851 -0.2749 -0.464453 0 1 0.501244 0.717295 0.483985 -0.462788 -0.81046 -0.35914
19.1827 0.856094 -69.9787 0.451026 -0.889533 0.0728438 -1.46875 0.498047 -0.0180958 0.0724857 0.997205 -0.892351 -0.450987 0.0179248
-5.17995 25.8627 -39.9935 -0.292453 -0.848176 -0.441665 0 0 -0.859031 0.0300866 0.511039 -0.915073 0.114099 0.38681
-15.0921 45.4961 -39.4754 -0.865182 0.286251 -0.411728 0.998047 0 0.47522 0.730143 -0.490975 -0.443581 -0.819804 0.362155
-21.3671 81.1744 -67.8585 -0.4459 0.887041 0.119718 2.46875 0.498047 -0.0687043 0.0994372 -0.992669 -0.892351 -0.450987 0.0179134
4.53951 55.4177 -39.8695 0.269118 0.859515 -0.434522 0.998047 1 -0.884853 0.0425163 -0.463926 -0.934278 0.123422 -0.334501
-5.17995 25.8627 -39.9935 -0.292453 -0.848176 -0.441665 0 0 -0.82436 0.45769 -0.333093 -0.736404 0.494396 -0.461824
-41.2479 20.7208 -68.1121 -0.885636 -0.450138 0.114129 0.498047 -1.46875 -0.450559 0.892436 0.0235528 -0.112753 -0.0299718 -0.993171
-15.0921 45.4961 -39.4754 -0.865182 0.286251 -0.411728 0.998047 0 0.128663 0.920295 0.369462 -0.0495434 -0.86584 -0.497862
-6.63374 36.6314 -8.80213 -0.745567 -0.390659 0.539922 0 1 -0.428294 -0.33983 -0.837305 -0.527817 -0.148474 -0.83628
-41.2479 20.7208 -68.1121 -0.885636 -0.450138 0.114129 0.998047 0 -0.0590017 -0.134702 -0.989128 -0.162609 0.0703984 -0.984176
-5.17995 25.8627 -39.9935 -0.292453 -0.848176 -0.441665 1 1 0.331861 0.343136 -0.878707 -0.757496 0.487369 -0.434362
-15.0921 45.4961 -39.4754 -0.865182 0.286251 -0.411728 1 1 0.454421 0.100368 -0.885115 -0.0672318 -0.879865 -0.470443
3 0 1 2
3 2 3 4
3 5 6 7
3 7 8 9
3 10 11 12
3 13 14 10
3 15 16 17
3 17 18 19
3 20 21 22
3 23 22 21
3 24 25 26
3 27 28 29
3 27 30 28
3 31 32 33
3 34 32 31
3 35 36 37
3 38 37 36
3 39 40 41
3 42 43 44
3 43 42 45
3 46 47 48
3 48 47 49
3 50 51 52
3 52 53 54
3 55 56 57
3 56 55 58
3 59 60 61
3 61 60 62
3 63 64 65
3 66 64 63
3 67 68 69
3 70 71 67
3 72 73 74
3 75 76 77
3 78 79 80
3 81 82 83
3 84 85 86
3 87 85 84
